# xmcd
#
# Track frame offsets:
#	150
#	23634
#	42032
#	66324
#	96873
#	121780
#	139845
#	165379
#	181607
#	199057
#	217734
#
# Disc length: 3256 seconds
#
# Revision: 1
# Processed by: cddbd v1.5.1PL0 Copyright (c) Steve Scherf et al.
# Submitted via: audiograbber 1.82.01
#
DISCID=870cb60b
DTITLE=John Lee Hooker - Don't Look Back
DYEAR=1997
DGENRE=
TTITLE0=Dimples
TTITLE1=Healing Game
TTITLE2=Ain't No Big Thing Baby
TTITLE3=Don't Look Back
TTITLE4=Blues Before Sunrise
TTITLE5=Spellbound
TTITLE6=Travelin' Blues
TTITLE7=I Love You Honey
TTITLE8=Frisco Blues
TTITLE9=Red House
TTITLE10=Rainy Day
EXTD=
EXTT0=
EXTT1=
EXTT2=
EXTT3=
EXTT4=
EXTT5=
EXTT6=
EXTT7=
EXTT8=
EXTT9=
EXTT10=
PLAYORDER=
